# xmcd
#
# Track frame offsets:
#	150
#	26687
#	45837
#	64524
#	82531
#	99087
#	118109
#	133615
#	148705
#	169245
#	184295
#	199657
#	216952
#	233194
#	252180
#	270428
#
# Disc length: 3884 seconds
#
# Revision: 1
# Processed by: cddbd v1.5.2PL0 Copyright (c) Steve Scherf et al.
# Submitted via: audiograbber 1.83.01
#
DISCID=d30f2a10
DTITLE=diverse - EMI's No One - Das Album der Superstars
DYEAR=1900
DGENRE=Oldies 80
TTITLE0=Queen - Radio Gaga
TTITLE1=Re-Flex - The Politics of Dancing
TTITLE2=China Crises - Wishful Thinking
TTITLE3=David Bowie - Modern Love
TTITLE4=Mike Oldfield - Crime of Passion
TTITLE5=Duran Duran - New Moon on Monday
TTITLE6=Paul McCartney - Piepes of Peace
TTITLE7=The Flying Pickets - Only You
TTITLE8=The Rolling Stones - Undercover of the Night
TTITLE9=Savage Progress - Ma soul unwraps tonight
TTITLE10=Culture Club - It's a Miracle
TTITLE11=Eurythmics - Here comes the rain again
TTITLE12=Kajagoogoo - The Lion's Mouth
TTITLE13=Thomas Dolby - Hyperactive!
TTITLE14=Simple Minds - Up on the Catwalk
TTITLE15=Stefan Waggershausen and Alice - Zu nah am Feuer
EXTD=
EXTT0=
EXTT1=
EXTT2=
EXTT3=
EXTT4=
EXTT5=
EXTT6=
EXTT7=
EXTT8=
EXTT9=
EXTT10=
EXTT11=
EXTT12=
EXTT13=
EXTT14=
EXTT15=
PLAYORDER=
